<svg width="128" height="128" viewBox="0 0 128 128" fill="none" xmlns="http://www.w3.org/2000/svg">
<path d="M33.3298 69.2736L43.1681 63.6577L37.6765 54.2484H89.3235L63.5083 98.5194L58.0167 89.0937L48.1785 94.7262L63.5083 121L109 43H18L33.3298 69.2736Z" fill="#414042"/>
<path d="M17.2939 36C17.1377 35.6973 17.001 35.2041 16.8838 34.5205C15.751 35.7021 14.3643 36.293 12.7236 36.293C11.1318 36.293 9.83301 35.8389 8.82715 34.9307C7.82129 34.0225 7.31836 32.8994 7.31836 31.5615C7.31836 29.8721 7.94336 28.5781 9.19336 27.6797C10.4531 26.7715 12.25 26.3174 14.584 26.3174H16.7666V25.2773C16.7666 24.457 16.5371 23.8027 16.0781 23.3145C15.6191 22.8164 14.9209 22.5674 13.9834 22.5674C13.1729 22.5674 12.5088 22.7725 11.9912 23.1826C11.4736 23.583 11.2148 24.0957 11.2148 24.7207H7.65527C7.65527 23.8516 7.94336 23.041 8.51953 22.2891C9.0957 21.5273 9.87695 20.9316 10.8633 20.502C11.8594 20.0723 12.9678 19.8574 14.1885 19.8574C16.0439 19.8574 17.5234 20.3262 18.627 21.2637C19.7305 22.1914 20.2969 23.5 20.3262 25.1895V32.3379C20.3262 33.7637 20.5264 34.9014 20.9268 35.751V36H17.2939ZM13.3828 33.4365C14.0859 33.4365 14.7451 33.2656 15.3604 32.9238C15.9854 32.582 16.4541 32.123 16.7666 31.5469V28.5586H14.8477C13.5293 28.5586 12.5381 28.7881 11.874 29.2471C11.21 29.7061 10.8779 30.3555 10.8779 31.1953C10.8779 31.8789 11.1025 32.4258 11.5518 32.8359C12.0107 33.2363 12.6211 33.4365 13.3828 33.4365ZM29.2031 29.2031L27.6211 30.8291V36H24.0615V13.5H27.6211V26.4785L28.7344 25.0869L33.1143 20.1504H37.3916L31.5029 26.7568L38.0215 36H33.9053L29.2031 29.2031ZM49.1982 36C49.042 35.6973 48.9053 35.2041 48.7881 34.5205C47.6553 35.7021 46.2686 36.293 44.6279 36.293C43.0361 36.293 41.7373 35.8389 40.7314 34.9307C39.7256 34.0225 39.2227 32.8994 39.2227 31.5615C39.2227 29.8721 39.8477 28.5781 41.0977 27.6797C42.3574 26.7715 44.1543 26.3174 46.4883 26.3174H48.6709V25.2773C48.6709 24.457 48.4414 23.8027 47.9824 23.3145C47.5234 22.8164 46.8252 22.5674 45.8877 22.5674C45.0771 22.5674 44.4131 22.7725 43.8955 23.1826C43.3779 23.583 43.1191 24.0957 43.1191 24.7207H39.5596C39.5596 23.8516 39.8477 23.041 40.4238 22.2891C41 21.5273 41.7812 20.9316 42.7676 20.502C43.7637 20.0723 44.8721 19.8574 46.0928 19.8574C47.9482 19.8574 49.4277 20.3262 50.5312 21.2637C51.6348 22.1914 52.2012 23.5 52.2305 25.1895V32.3379C52.2305 33.7637 52.4307 34.9014 52.8311 35.751V36H49.1982ZM45.2871 33.4365C45.9902 33.4365 46.6494 33.2656 47.2646 32.9238C47.8896 32.582 48.3584 32.123 48.6709 31.5469V28.5586H46.752C45.4336 28.5586 44.4424 28.7881 43.7783 29.2471C43.1143 29.7061 42.7822 30.3555 42.7822 31.1953C42.7822 31.8789 43.0068 32.4258 43.4561 32.8359C43.915 33.2363 44.5254 33.4365 45.2871 33.4365ZM62.8652 28.3682H55.1748V25.4971H62.8652V28.3682ZM69.5889 36H66.0293V13.5H69.5889V36ZM83.0801 34.4473C82.0352 35.6777 80.5508 36.293 78.627 36.293C76.9082 36.293 75.6045 35.79 74.7158 34.7842C73.8369 33.7783 73.3975 32.3232 73.3975 30.4189V20.1504H76.957V30.375C76.957 32.3867 77.792 33.3926 79.4619 33.3926C81.1904 33.3926 82.3574 32.7725 82.9629 31.5322V20.1504H86.5225V36H83.168L83.0801 34.4473ZM99.6182 36C99.4619 35.6973 99.3252 35.2041 99.208 34.5205C98.0752 35.7021 96.6885 36.293 95.0479 36.293C93.4561 36.293 92.1572 35.8389 91.1514 34.9307C90.1455 34.0225 89.6426 32.8994 89.6426 31.5615C89.6426 29.8721 90.2676 28.5781 91.5176 27.6797C92.7773 26.7715 94.5742 26.3174 96.9082 26.3174H99.0908V25.2773C99.0908 24.457 98.8613 23.8027 98.4023 23.3145C97.9434 22.8164 97.2451 22.5674 96.3076 22.5674C95.4971 22.5674 94.833 22.7725 94.3154 23.1826C93.7979 23.583 93.5391 24.0957 93.5391 24.7207H89.9795C89.9795 23.8516 90.2676 23.041 90.8438 22.2891C91.4199 21.5273 92.2012 20.9316 93.1875 20.502C94.1836 20.0723 95.292 19.8574 96.5127 19.8574C98.3682 19.8574 99.8477 20.3262 100.951 21.2637C102.055 22.1914 102.621 23.5 102.65 25.1895V32.3379C102.65 33.7637 102.851 34.9014 103.251 35.751V36H99.6182ZM95.707 33.4365C96.4102 33.4365 97.0693 33.2656 97.6846 32.9238C98.3096 32.582 98.7783 32.123 99.0908 31.5469V28.5586H97.1719C95.8535 28.5586 94.8623 28.7881 94.1982 29.2471C93.5342 29.7061 93.2021 30.3555 93.2021 31.1953C93.2021 31.8789 93.4268 32.4258 93.876 32.8359C94.335 33.2363 94.9453 33.4365 95.707 33.4365ZM109.682 20.1504L109.784 21.9814C110.956 20.5654 112.494 19.8574 114.398 19.8574C117.699 19.8574 119.379 21.7471 119.438 25.5264V36H115.878V25.7314C115.878 24.7256 115.658 23.9834 115.219 23.5049C114.789 23.0166 114.081 22.7725 113.095 22.7725C111.659 22.7725 110.59 23.4219 109.887 24.7207V36H106.327V20.1504H109.682Z" fill="#414042"/>
</svg>
