<svg width="68" height="57" viewBox="0 0 68 57" fill="none" xmlns="http://www.w3.org/2000/svg">
<path d="M18.016 31.112H20.944V32H16.924V23.636H18.016V31.112Z" fill="black"/>
<path d="M34.868 24.14H31.22L30.548 26H29.396L32.42 17.684H33.68L36.692 26H35.54L34.868 24.14ZM34.556 23.252L33.044 19.028L31.532 23.252H34.556Z" fill="black"/>
<path d="M44.516 27.812C44.516 26.996 44.7 26.264 45.068 25.616C45.436 24.96 45.936 24.448 46.568 24.08C47.208 23.712 47.916 23.528 48.692 23.528C49.604 23.528 50.4 23.748 51.08 24.188C51.76 24.628 52.256 25.252 52.568 26.06H51.26C51.028 25.556 50.692 25.168 50.252 24.896C49.82 24.624 49.3 24.488 48.692 24.488C48.108 24.488 47.584 24.624 47.12 24.896C46.656 25.168 46.292 25.556 46.028 26.06C45.764 26.556 45.632 27.14 45.632 27.812C45.632 28.476 45.764 29.06 46.028 29.564C46.292 30.06 46.656 30.444 47.12 30.716C47.584 30.988 48.108 31.124 48.692 31.124C49.3 31.124 49.82 30.992 50.252 30.728C50.692 30.456 51.028 30.068 51.26 29.564H52.568C52.256 30.364 51.76 30.984 51.08 31.424C50.4 31.856 49.604 32.072 48.692 32.072C47.916 32.072 47.208 31.892 46.568 31.532C45.936 31.164 45.436 30.656 45.068 30.008C44.7 29.36 44.516 28.628 44.516 27.812Z" fill="black"/>
<line x1="11" y1="36.5" x2="57" y2="36.5" stroke="black"/>
<line x1="16.408" y1="12.711" x2="33.408" y2="36.711" stroke="black"/>
<line x1="33.6464" y1="36.6464" x2="42.6464" y2="27.6464" stroke="black"/>
</svg>
